<svg width="29" height="29" viewBox="0 0 29 29" fill="none" xmlns="http://www.w3.org/2000/svg">
<path fill-rule="evenodd" clip-rule="evenodd" d="M14.4984 0.526367C6.7829 0.526367 0.523438 6.78583 0.523438 14.5014C0.523438 22.2169 6.7829 28.4764 14.4984 28.4764C22.214 28.4764 28.4734 22.2169 28.4734 14.5014C28.4734 6.78583 22.214 0.526367 14.4984 0.526367ZM2.22344 14.5014C2.22344 7.72472 7.72179 2.22637 14.4984 2.22637C21.2751 2.22637 26.7734 7.72472 26.7734 14.5014C26.7734 21.278 21.2751 26.7764 14.4984 26.7764C7.72179 26.7764 2.22344 21.278 2.22344 14.5014ZM20.5939 9.69878C20.3798 9.44641 20.0202 9.43279 19.7909 9.66829L11.6694 18.0063L9.21666 15.3083C8.99478 15.0642 8.63501 15.0642 8.41313 15.3083C8.19126 15.5523 8.19126 15.9481 8.41313 16.1922L11.254 19.3172C11.4705 19.5553 11.8197 19.5619 12.0435 19.3322L20.5662 10.5822C20.7956 10.3466 20.808 9.9511 20.5939 9.69878Z" fill="#E79B64"/>
</svg>
