<svg width="14" height="14" viewBox="0 0 14 14" fill="none" xmlns="http://www.w3.org/2000/svg">
<path fill-rule="evenodd" clip-rule="evenodd" d="M0.361202 0.804812C0.727318 0.438695 1.32091 0.438695 1.68703 0.804811L6.76936 5.88714L11.8518 0.804733C12.2179 0.438616 12.8115 0.438616 13.1776 0.804732C13.5437 1.17085 13.5437 1.76444 13.1776 2.13056L8.09518 7.21297L13.1775 12.2953C13.5436 12.6614 13.5436 13.255 13.1775 13.6211C12.8114 13.9872 12.2178 13.9872 11.8517 13.6211L6.76936 8.53879L1.68711 13.621C1.32099 13.9872 0.727398 13.9872 0.361281 13.621C-0.00483549 13.2549 -0.00483551 12.6613 0.361281 12.2952L5.44353 7.21297L0.361202 2.13064C-0.00491447 1.76452 -0.00491465 1.17093 0.361202 0.804812Z" fill="#3B3B3B"/>
</svg>
