<svg width="249" height="44" viewBox="0 0 249 44" fill="none" xmlns="http://www.w3.org/2000/svg">
<path fill-rule="evenodd" clip-rule="evenodd" d="M28.8052 12.7923C28.9453 13.1283 29.1918 13.4241 29.3365 13.7987C29.4875 14.1896 29.5712 14.5571 29.6227 15.0172C29.8866 17.3724 28.7268 20.1146 27.9066 22.1851C27.3389 23.6181 26.8126 25.1516 26.3272 26.5351C26.0691 27.2703 25.8076 28.0657 25.5966 28.7938C25.1265 30.4162 25.1721 32.7844 23.4013 32.5738C22.5622 32.474 22.1973 31.6586 21.9888 31.0276C21.7443 30.288 21.6654 29.424 21.3862 28.6558C21.1418 27.9834 20.8261 27.0665 19.8349 27.4596C19.1833 27.7181 19.1253 28.7968 18.9868 29.5601C18.6893 31.1997 17.4687 33.2051 16.1498 31.9881C15.8989 31.7566 15.6829 31.4396 15.5167 31.1416C15.3983 30.9293 15.1144 30.2572 15.0414 30.1637C14.9028 30.0244 14.9761 30.4283 14.9152 29.979C14.8294 30.2998 14.8539 30.1708 14.6692 30.2381C14.6002 30.2632 14.5319 30.3025 14.4844 30.3498C14.3886 30.4452 14.4307 30.3739 14.377 30.5053C14.1977 30.222 14.082 30.3988 13.864 30.5002C13.6654 30.5926 13.8189 30.539 13.5561 30.5718L12.4512 30.8827C12.2578 30.9187 12.1745 30.8631 11.9065 30.9266C10.7657 31.1968 11.2864 31.0999 10.4011 31.8113L10.1709 31.9258C10.1928 31.6311 10.5462 31.393 10.7439 31.2549C10.6145 31.1425 10.763 31.238 10.6132 31.1873L10.2199 31.1554C8.65807 31.127 9.43904 31.2663 8.20989 31.2847C8.53979 31.6719 8.8863 31.6251 8.7182 31.9285L8.04753 31.4084C7.30474 30.8523 6.55625 31.3258 5.61109 31.0084C5.59526 31.0031 5.58014 30.995 5.56354 30.9903C5.3316 30.9246 5.08894 30.9961 4.73525 30.9159L3.98161 30.7651C3.74677 30.7349 3.43814 30.3964 3.0564 30.7066C3.35241 31.5146 4.91172 33.2785 5.60143 34.0004C9.93147 38.5323 15.929 40.6882 22.2345 40.0138L23.6639 39.8055C24.0296 39.8195 23.8344 40.404 23.7134 40.9382C23.6446 41.2422 23.5734 41.6016 23.4799 41.9398C23.3655 42.3537 22.9376 43.5164 23.0342 43.8933C23.4542 44.0976 23.5433 43.9757 23.9316 43.8013L26.241 42.7041C27.4563 42.0501 29.307 40.9072 30.3742 40.0048C30.7835 39.6586 31.1957 39.3269 31.5925 38.9627C32.3613 38.2572 33.0973 37.4986 33.8108 36.6664C34.5896 35.7581 35.9734 33.7473 36.5894 32.5954C38.2255 29.536 38.7638 27.7592 39.5236 24.1824C40.5467 19.3663 39.4893 13.0364 36.5625 8.98711L35.7445 7.80923C35.7356 7.79956 35.7218 7.78617 35.7132 7.7762C35.631 7.68112 35.6785 7.73949 35.6063 7.62788C35.4769 7.42757 35.4997 7.45746 35.3597 7.29109C34.6263 6.41971 33.3679 5.14388 32.5395 4.49825C32.2793 4.29539 32.1265 4.15268 31.8885 3.98572C30.5936 3.07721 28.2129 1.53617 26.7242 1.20384C26.6653 1.33717 26.5152 1.38995 26.5152 1.38995C26.5079 1.37668 26.4822 1.40692 26.4682 1.41879C26.774 1.42763 26.8607 1.44057 27.0031 1.8469L27.6669 3.49351C27.6711 3.50383 27.679 3.52127 27.6826 3.53137C27.6859 3.54082 27.6918 3.55848 27.6945 3.56791L27.9053 4.19788C27.9521 4.33886 27.8742 4.09807 27.9318 4.30643C27.9345 4.31622 27.9395 4.33456 27.9424 4.34482L27.969 4.42942C28.1057 4.90728 27.9292 4.7186 28.1514 5.15729C28.3006 5.45179 28.2534 5.58686 28.3386 5.86609L28.3718 5.96504C28.3901 6.02414 28.3977 6.06024 28.4163 6.12069C28.4226 6.14097 28.4426 6.1987 28.4483 6.21757L28.491 6.38545C28.5092 6.56468 28.4724 6.26931 28.4894 6.52195C28.5083 6.80207 28.4808 6.52138 28.5536 6.81355C28.5803 6.92039 28.5811 6.98138 28.6068 7.09078L28.6488 7.2254C28.7743 7.60002 28.6215 7.47789 28.6609 7.81149C28.7101 8.22742 28.8176 7.84917 28.7954 8.26681C28.7511 9.10008 29.0014 8.73537 28.8276 8.94666L28.7334 9.03961C29.043 9.05206 28.8435 9.04761 28.9368 9.09128C28.951 9.09791 28.933 9.29765 28.999 9.14091C29.0033 9.13081 29.0145 9.16191 29.0249 9.16938C28.9115 9.31331 29.0899 9.12579 28.8452 9.23411C28.8502 9.61978 28.8033 9.50926 28.8579 9.93907C29.0243 11.2468 28.456 10.8084 29.2943 11.7501C28.8969 11.8444 29.2718 11.763 28.8497 11.6741C28.8459 11.9863 28.9141 12.4152 28.8052 12.7923ZM18.8343 5.13777C18.6935 4.79354 18.7788 3.6475 18.8016 3.20388C18.8249 2.75002 18.7508 2.57045 19.188 2.60459L21.09 2.75386C21.5551 2.79367 21.4007 2.97119 21.3648 3.46704C21.3284 3.97014 21.4083 5.00805 21.3238 5.39071C21.1831 5.40387 18.9399 5.32675 18.8794 5.16949C18.8707 5.1468 18.8474 5.15069 18.8343 5.13777ZM3.0564 30.7066C3.43814 30.3964 3.74677 30.7349 3.98161 30.7651L4.73525 30.9159C5.08894 30.9961 5.3316 30.9246 5.56354 30.9903C5.58014 30.995 5.59526 31.0031 5.61109 31.0084C6.55625 31.3258 7.30474 30.8523 8.04753 31.4084L8.7182 31.9285C8.8863 31.6251 8.53979 31.6719 8.20989 31.2847C9.43904 31.2663 8.65807 31.127 10.2199 31.1554L10.6132 31.1873C10.763 31.238 10.6145 31.1425 10.7439 31.2549C10.5462 31.393 10.1928 31.6311 10.1709 31.9258L10.4011 31.8113C11.2864 31.0999 10.7657 31.1968 11.9065 30.9266C12.1745 30.8631 12.2578 30.9187 12.4512 30.8827L13.5561 30.5718C13.8189 30.539 13.6654 30.5926 13.864 30.5002C14.082 30.3988 14.1977 30.222 14.377 30.5053C14.4307 30.3739 14.3886 30.4452 14.4844 30.3498C14.5319 30.3025 14.6002 30.2632 14.6692 30.2381C14.8539 30.1708 14.8294 30.2998 14.9152 29.979C14.9761 30.4283 14.9028 30.0244 15.0414 30.1637L14.3421 27.9237C14.1214 27.1777 13.8841 26.4644 13.6064 25.7517C13.0605 24.3504 12.5315 23.0835 11.8039 21.6791C11.0958 20.3123 10.4238 18.9809 10.2643 17.3893C9.90408 13.7958 12.3613 11.0567 16.0384 11.7881C18.4452 12.2668 19.5258 13.5276 20.3007 13.236C22.1339 12.5461 25.1425 10.2531 27.9968 12.1062C28.3431 12.3311 28.5012 12.6077 28.8052 12.7923C28.9141 12.4152 28.8459 11.9863 28.8497 11.6741C29.2718 11.763 28.8969 11.8444 29.2943 11.7501C28.456 10.8084 29.0243 11.2468 28.8579 9.93907C28.8033 9.50926 28.8502 9.61978 28.8452 9.23411C29.0899 9.12579 28.9115 9.31331 29.0249 9.16938C29.0145 9.16191 29.0033 9.13081 28.999 9.14091C28.933 9.29765 28.951 9.09791 28.9368 9.09128C28.8435 9.04761 29.043 9.05206 28.7334 9.03961L28.8276 8.94666C29.0014 8.73537 28.7511 9.10008 28.7954 8.26681C28.8176 7.84917 28.7101 8.22742 28.6609 7.81149C28.6215 7.47789 28.7743 7.60002 28.6488 7.2254L28.6068 7.09078C28.5811 6.98138 28.5803 6.92039 28.5536 6.81355C28.4808 6.52138 28.5083 6.80207 28.4894 6.52195C28.4724 6.26931 28.5092 6.56468 28.491 6.38545L28.4483 6.21757C28.4426 6.1987 28.4226 6.14097 28.4163 6.12069C28.3977 6.06024 28.3901 6.02414 28.3718 5.96504L28.3386 5.86609C28.2534 5.58686 28.3006 5.45179 28.1514 5.15729C27.9292 4.7186 28.1057 4.90728 27.969 4.42942L27.9424 4.34482C27.9395 4.33456 27.9345 4.31622 27.9318 4.30643C27.8742 4.09807 27.9521 4.33886 27.9053 4.19788L27.6945 3.56791C27.6918 3.55848 27.6859 3.54082 27.6826 3.53137C27.679 3.52127 27.6711 3.50383 27.6669 3.49351L27.0031 1.8469C26.8607 1.44057 26.774 1.42763 26.4682 1.41879C26.4822 1.40692 26.5079 1.37668 26.5152 1.38995C26.5152 1.38995 26.6653 1.33717 26.7242 1.20384C26.2771 0.920224 24.3641 0.50345 23.7165 0.356905C22.6212 0.109043 21.409 0.00648816 20.1812 0.000277992C14.9164 -0.0263688 10.0429 1.86323 6.3006 5.41916C5.5573 6.12544 5.13715 6.59041 4.47166 7.40109C3.23988 8.9017 2.33928 10.3909 1.56094 12.2462C0.855497 13.9278 0.178132 16.4221 0.056555 18.4196C-0.00594223 19.4468 -0.0493855 21.3202 0.110275 22.2573L0.209995 22.9764C0.231115 23.2803 0.288056 23.5696 0.337498 23.8169C0.453715 24.3984 0.54338 24.8765 0.71285 25.403C1.03569 26.406 1.30451 27.3081 1.73078 28.254C1.90834 28.648 2.80762 30.5264 3.0564 30.7066ZM18.9906 21.7576C19.3346 21.7382 21.2808 21.8709 21.4526 21.9962C21.6245 22.161 21.7389 24.2666 21.6323 24.5437C21.2769 24.6563 19.5542 24.4782 19.1469 24.3811C19.0983 24.15 18.9408 21.9673 18.9906 21.7576ZM18.3312 13.9929C17.8539 13.5736 16.4018 13.1135 15.6422 12.9844C14.4272 12.7778 13.6622 12.9355 12.947 13.9271C11.5965 15.7998 12.1157 18.3037 13.0352 20.2359C13.0871 20.3448 13.1125 20.3872 13.1819 20.5376C13.2851 20.7613 13.4199 21.0057 13.5029 21.1815L15.6241 26.5511C15.6645 26.6799 15.6836 26.8173 15.7146 26.9199C15.9545 27.7148 16.6026 30.4473 17.36 30.5241C17.525 29.9599 17.6863 29.6183 17.7805 28.9645C17.9331 27.9053 18.1699 26.8658 19.2147 26.3701C21.0146 25.5161 22.0853 26.6487 22.6323 28.3173C22.9222 29.2016 23.182 31.1934 23.6533 31.2582C23.8083 30.6097 24.003 29.8958 24.1683 29.1648C24.3253 28.4709 24.5472 27.7826 24.7851 27.0614C25.2453 25.6658 25.7076 24.3364 26.1971 23.0648C27.0463 20.8582 30.0004 14.5032 27.0087 12.9862C24.9907 11.9629 22.6076 13.6269 20.9003 14.3655C19.5392 14.9543 18.3167 15.319 16.8642 15.6744C15.6617 15.9686 15.5825 14.7936 16.2689 14.5338C16.3927 14.4869 18.2688 13.9979 18.3312 13.9929ZM18.3312 13.9929C18.2688 13.9979 16.3927 14.4869 16.2689 14.5338C15.5825 14.7936 15.6617 15.9686 16.8642 15.6744C18.3167 15.319 19.5392 14.9543 20.9003 14.3655C22.6076 13.6269 24.9907 11.9629 27.0087 12.9862C30.0004 14.5032 27.0463 20.8582 26.1971 23.0648C25.7076 24.3364 25.2453 25.6658 24.7851 27.0614C24.5472 27.7826 24.3253 28.4709 24.1683 29.1648C24.003 29.8958 23.8083 30.6097 23.6533 31.2582C23.182 31.1934 22.9222 29.2016 22.6323 28.3173C22.0853 26.6487 21.0146 25.5161 19.2147 26.3701C18.1699 26.8658 17.9331 27.9053 17.7805 28.9645C17.6863 29.6183 17.525 29.9599 17.36 30.5241C16.6026 30.4473 15.9545 27.7148 15.7146 26.9199C15.6836 26.8173 15.6645 26.6799 15.6241 26.5511L13.5029 21.1815C13.4199 21.0057 13.2851 20.7613 13.1819 20.5376C13.1125 20.3872 13.0871 20.3448 13.0352 20.2359C12.1157 18.3037 11.5965 15.7998 12.947 13.9271C13.6622 12.9355 14.4272 12.7778 15.6422 12.9844C16.4018 13.1135 17.8539 13.5736 18.3312 13.9929ZM15.0414 30.1637C15.1144 30.2572 15.3983 30.9293 15.5167 31.1416C15.6829 31.4396 15.8989 31.7566 16.1498 31.9881C17.4687 33.2051 18.6893 31.1997 18.9868 29.5601C19.1253 28.7968 19.1833 27.7181 19.8349 27.4596C20.8261 27.0665 21.1418 27.9834 21.3862 28.6558C21.6654 29.424 21.7443 30.288 21.9888 31.0276C22.1973 31.6586 22.5622 32.474 23.4013 32.5738C25.1721 32.7844 25.1265 30.4162 25.5966 28.7938C25.8076 28.0657 26.0691 27.2703 26.3272 26.5351C26.8126 25.1516 27.3389 23.6181 27.9066 22.1851C28.7268 20.1146 29.8866 17.3724 29.6227 15.0172C29.5712 14.5571 29.4875 14.1896 29.3365 13.7987C29.1918 13.4241 28.9453 13.1283 28.8052 12.7923C28.5012 12.6077 28.3431 12.3311 27.9968 12.1062C25.1425 10.2531 22.1339 12.5461 20.3007 13.236C19.5258 13.5276 18.4452 12.2668 16.0384 11.7881C12.3613 11.0567 9.90408 13.7958 10.2643 17.3893C10.4238 18.9809 11.0958 20.3123 11.8039 21.6791C12.5315 23.0835 13.0605 24.3504 13.6064 25.7517C13.8841 26.4644 14.1214 27.1777 14.3421 27.9237L15.0414 30.1637ZM18.9906 21.7576C18.9408 21.9673 19.0983 24.15 19.1469 24.3811C19.5542 24.4782 21.2769 24.6563 21.6323 24.5437C21.7389 24.2666 21.6245 22.161 21.4526 21.9962C21.2808 21.8709 19.3346 21.7382 18.9906 21.7576ZM18.8343 5.13777C18.8474 5.15069 18.8707 5.1468 18.8794 5.16949C18.9399 5.32675 21.1831 5.40387 21.3238 5.39071C21.4083 5.00805 21.3284 3.97014 21.3648 3.46704C21.4007 2.97119 21.5551 2.79367 21.09 2.75386L19.188 2.60459C18.7508 2.57045 18.8249 2.75002 18.8016 3.20388C18.7788 3.6475 18.6935 4.79354 18.8343 5.13777Z" fill="url(#paint0_linear_2_120)"/>
<path d="M62.3632 30.3561V19.1535L54.5421 30.3561H51.8047V11.9912H55.4024V23.22L63.2235 11.9912H65.9609V30.3561H62.3632ZM82.7501 17.2383V30.3561H79.4913V22.6953L76.1804 27.9424H75.7633L72.4263 22.6428V30.3561H69.1935V17.2383H72.5045L75.9718 22.7478L79.4392 17.2383H82.7501ZM97.7405 17.2383V30.3561H94.3774V20.4128H89.1895V30.3561H85.8264V17.2383H97.7405H97.7405ZM112.001 17.2383V30.3561H108.638V20.4915H105.04V24.8729C105.04 28.9306 103.207 30.7583 99.5394 30.3561V27.1816C100.235 27.3565 100.765 27.2384 101.13 26.8274C101.495 26.4164 101.677 25.7036 101.677 24.6892V17.2383H112.001H112.001ZM124.958 17.2383H128.321V30.3561H124.958V28.8082C123.95 30.085 122.533 30.7234 120.708 30.7234C118.97 30.7234 117.48 30.0544 116.237 28.7163C114.995 27.3783 114.373 25.7386 114.373 23.7972C114.373 21.8558 114.995 20.2161 116.237 18.878C117.48 17.54 118.97 16.871 120.708 16.871C122.533 16.871 123.95 17.5094 124.958 18.7862V17.2383V17.2383ZM118.753 26.4601C119.431 27.151 120.291 27.4964 121.334 27.4964C122.377 27.4964 123.242 27.151 123.928 26.4601C124.615 25.7692 124.958 24.8816 124.958 23.7972C124.958 22.7128 124.615 21.8252 123.928 21.1343C123.242 20.4434 122.377 20.098 121.334 20.098C120.291 20.098 119.431 20.4434 118.753 21.1343C118.075 21.8252 117.736 22.7128 117.736 23.7972C117.736 24.8816 118.075 25.7692 118.753 26.4601ZM139.922 17.2383H143.285V30.3561H139.922V25.3713H134.734V30.3561H131.371V17.2383H134.734V22.1968H139.922V17.2383ZM156.633 17.2383V20.4915H152.566V30.3561H149.203V20.4915H145.084V17.2383H156.633ZM169.017 28.7163C167.678 30.0543 166.044 30.7234 164.115 30.7234C162.186 30.7234 160.557 30.0544 159.227 28.7163C157.898 27.3783 157.233 25.7386 157.233 23.7972C157.233 21.8558 157.898 20.2161 159.227 18.878C160.557 17.54 162.186 16.871 164.115 16.871C166.044 16.871 167.678 17.54 169.017 18.878C170.355 20.2161 171.024 21.8558 171.024 23.7972C171.024 25.7386 170.355 27.3783 169.017 28.7163ZM161.6 26.3945C162.269 27.0766 163.107 27.4177 164.115 27.4177C165.123 27.4177 165.966 27.0766 166.644 26.3945C167.322 25.7124 167.661 24.8466 167.661 23.7972C167.661 22.7478 167.322 21.882 166.644 21.1999C165.966 20.5178 165.123 20.1767 164.115 20.1767C163.107 20.1767 162.269 20.5178 161.6 21.1999C160.93 21.882 160.596 22.7478 160.596 23.7972C160.596 24.8466 160.93 25.7124 161.6 26.3945ZM184.242 17.2383V30.3561H180.878V20.4915H177.281V24.8729C177.281 28.9306 175.447 30.7583 171.78 30.3561V27.1816C172.475 27.3565 173.005 27.2384 173.37 26.8274C173.735 26.4164 173.918 25.7036 173.918 24.6892V17.2383H184.242H184.242ZM198.398 28.7163C197.059 30.0543 195.426 30.7234 193.496 30.7234C191.567 30.7234 189.938 30.0544 188.608 28.7163C187.279 27.3783 186.614 25.7386 186.614 23.7972C186.614 21.8558 187.279 20.2161 188.608 18.878C189.938 17.54 191.567 16.871 193.496 16.871C195.426 16.871 197.059 17.54 198.398 18.878C199.736 20.2161 200.405 21.8558 200.405 23.7972C200.405 25.7386 199.736 27.3783 198.398 28.7163ZM190.981 26.3945C191.65 27.0766 192.488 27.4177 193.496 27.4177C194.504 27.4177 195.347 27.0766 196.025 26.3945C196.703 25.7124 197.042 24.8466 197.042 23.7972C197.042 22.7478 196.703 21.882 196.025 21.1999C195.347 20.5178 194.504 20.1767 193.496 20.1767C192.488 20.1767 191.65 20.5178 190.981 21.1999C190.312 21.882 189.977 22.7478 189.977 23.7972C189.977 24.8466 190.312 25.7124 190.981 26.3945ZM211.693 17.2383V20.4915H206.141V30.3561H202.777V17.2383H211.693ZM214.639 30.0412C214.205 30.4785 213.684 30.6971 213.075 30.6971C212.467 30.6971 211.945 30.4785 211.511 30.0412C211.076 29.604 210.859 29.0793 210.859 28.4671C210.859 27.8549 211.076 27.3302 211.511 26.8929C211.945 26.4557 212.467 26.237 213.075 26.237C213.684 26.237 214.205 26.4557 214.639 26.8929C215.074 27.3302 215.291 27.8549 215.291 28.4671C215.291 29.0793 215.074 29.604 214.639 30.0412ZM225.693 16.871C227.449 16.871 228.948 17.54 230.19 18.878C231.433 20.2161 232.054 21.8558 232.054 23.7972C232.054 25.7386 231.433 27.3783 230.19 28.7163C228.948 30.0543 227.449 30.7234 225.693 30.7234C223.868 30.7234 222.46 30.085 221.47 28.8082V30.3561H218.107V11.9912H221.47V18.7862C222.46 17.5094 223.868 16.871 225.693 16.871ZM222.487 26.4601C223.164 27.151 224.025 27.4964 225.067 27.4964C226.11 27.4964 226.975 27.151 227.661 26.4601C228.348 25.7692 228.691 24.8816 228.691 23.7972C228.691 22.7128 228.348 21.8252 227.661 21.1343C226.975 20.4434 226.11 20.098 225.067 20.098C224.025 20.098 223.164 20.4434 222.487 21.1343C221.809 21.8252 221.47 22.7128 221.47 23.7972C221.47 24.8816 221.809 25.7692 222.487 26.4601ZM242.404 17.2383H246.002L241.257 30.3561C240.579 32.245 239.68 33.6136 238.559 34.4619C237.438 35.3102 236.043 35.6906 234.375 35.6032V32.4549C235.278 32.4724 235.995 32.28 236.525 31.8777C237.055 31.4755 237.477 30.8283 237.79 29.9363L232.445 17.2383H236.121L239.51 26.0535L242.404 17.2383V17.2383Z" fill="#434242"/>
<path fill-rule="evenodd" clip-rule="evenodd" d="M7.87729 19.1591C7.88157 22.3047 10.0097 29.347 11.4196 32.1269C11.9253 33.1241 12.446 33.8716 13.0884 34.6068C13.5707 35.1589 14.9285 36.2559 15.8819 35.7938C17.3603 35.0773 17.0232 30.9226 19.18 30.7983C21.9256 30.6401 20.619 35.3997 22.6183 35.5796C24.7484 35.7713 26.3573 33.4687 27.2498 31.9013C28.9218 28.9651 31.246 23.0704 31.2517 19.3131C31.2555 16.8292 30.1253 15.278 28.1526 14.5122C27.1143 14.1091 25.9281 13.9692 24.6133 14.0904C23.8194 14.1636 22.4231 14.5267 21.7017 15.0061L21.6015 15.0771C21.7216 15.3828 22.1299 15.6094 22.4159 15.8246C23.3813 16.5508 24.5335 17.07 25.8376 17.0684C26.5838 17.0675 26.8418 16.9297 27.4894 16.8292L27.2432 17.1139C25.58 18.5136 23.5055 18.1452 21.7198 17.2137C19.9361 16.2832 18.545 15.0971 16.9409 14.321C13.3948 12.6054 7.86969 13.5792 7.87727 19.1591H7.87729Z" fill="#B56D3E" fill-opacity="0.5"/>
<path fill-rule="evenodd" clip-rule="evenodd" d="M8.02063 15.3879C8.02491 18.5335 10.153 25.5758 11.5629 28.3557C12.0686 29.3529 12.5894 30.1004 13.2317 30.8356C13.7141 31.3876 15.0718 32.4846 16.0252 32.0226C17.5036 31.3061 17.1665 27.1514 19.3233 27.0271C22.0689 26.8688 20.7623 31.6284 22.7616 31.8084C24.8917 32.0001 26.5006 29.6975 27.3932 28.1301C29.0651 25.1938 31.3893 19.2992 31.395 15.5419C31.3988 13.0579 30.2687 11.5068 28.296 10.7409C27.2576 10.3378 26.0715 10.1979 24.7566 10.3191C23.9628 10.3923 22.5665 10.7555 21.845 11.2349L21.7448 11.3058C21.8649 11.6116 22.2732 11.8382 22.5593 12.0533C23.5246 12.7796 24.6768 13.2987 25.981 13.2971C26.7272 13.2962 26.9852 13.1584 27.6328 13.058L27.3866 13.3427C25.7233 14.7424 23.6489 14.374 21.8631 13.4425C20.0794 12.512 18.6883 11.3259 17.0842 10.5498C13.5381 8.83414 8.01303 9.808 8.02061 15.3879H8.02063Z" fill="#FEFEFE"/>
<defs>
<linearGradient id="paint0_linear_2_120" x1="3.54037" y1="37.3824" x2="43.0637" y2="3.96257" gradientUnits="userSpaceOnUse">
<stop stop-color="#F59759"/>
<stop offset="1" stop-color="#FFB17D"/>
</linearGradient>
</defs>
</svg>
